<!DOCTYPE svg PUBLIC "-//W3C//DTD SVG 1.1//EN" "http://www.w3.org/Graphics/SVG/1.1/DTD/svg11.dtd">
<!-- Uploaded to: SVG Repo, www.svgrepo.com, Transformed by: SVG Repo Mixer Tools -->
<svg version="1.1" id="_x32_" xmlns="http://www.w3.org/2000/svg" xmlns:xlink="http://www.w3.org/1999/xlink" width="800px" height="800px" viewBox="0 0 512 512" xml:space="preserve" fill="#f28482">
<g id="SVGRepo_bgCarrier" stroke-width="0"/>
<g id="SVGRepo_tracerCarrier" stroke-linecap="round" stroke-linejoin="round"/>
<g id="SVGRepo_iconCarrier"> <style type="text/css">  .st0{fill:#f28482;}  </style> <g> <path class="st0" d="M117.443,416.762c-6.141,6.125-16.078,6.125-22.203,0.016l0,0c-6.141-6.141-6.141-16.079,0-22.219 l116.547-116.547c6.141-6.125,16.078-6.125,22.203,0l0,0c6.125,6.125,6.125,16.063,0,22.203L117.443,416.762z"/> <path class="st0" d="M167.318,197.699l-60.047,82.125c0,0-11.406-9.781-34.797-6.719c-34.578,4.516-49.25,44.547-56.547,52.781 c-7.547,5.188-31.641-46.313-0.125-93.734C69.037,152.058,167.318,197.699,167.318,197.699z"/> <path class="st0" d="M314.303,344.699l-82.125,60.031c0,0,9.766,11.391,6.703,34.797c-4.516,34.578-44.531,49.234-52.781,56.547 c-5.172,7.531,46.328,31.641,93.734,0.125C359.943,442.965,314.303,344.699,314.303,344.699z"/> <path class="st0" d="M465.068,168.402c17.266-38.844,17.531-78.328-1.969-104.859c0.188-0.172,0.375-0.359,0.547-0.547 c30.484-30.469,51.906-58.453,47.859-62.5s-32.047,17.375-62.516,47.844c-0.188,0.188-0.359,0.359-0.547,0.547 c-26.5-19.484-65.969-19.234-104.766-2.016c14.047,22.672,32.094,45.75,53.906,67.547 C419.365,136.199,442.428,154.355,465.068,168.402z"/> <path class="st0" d="M380.053,131.949c-23.531-23.547-43.172-48.5-58.422-73.359c-12.641,7.859-24.953,17.438-36.391,28.875 c-37.391,37.375-175.297,219.813-175.297,219.813l24.609,24.609l65.547-65.563c12.563-12.563,33.016-12.563,45.578,0 s12.563,33,0,45.563l-65.563,65.563l24.609,24.609c0,0,182.422-137.922,219.813-175.297c11.469-11.469,21.063-23.813,28.938-36.5 C428.6,174.996,403.631,155.496,380.053,131.949z M295.334,216.667c-15.063-15.063-15.063-39.469,0-54.531s39.469-15.063,54.531,0 s15.063,39.469,0,54.531S310.396,231.73,295.334,216.667z"/> </g> </g>
</svg>